PathFileType	3	(X/Y/Z)	D:\Vicon Database\Healthy Subjects\S0040\Jan. 30, 2020\Force Plate Walk 4.trc
DataRate	CameraRate	NumFrames	NumMarkers	Units	OrigDataRate	OrigDataStartFrame	OrigNumFrames
100.0	100.0	4	53	mm	100.0	364	329	
Frame#	Time	right_foot_cluster2			right_foot_cluster3			sternum_cluster1			sternum_cluster2			sternum_cluster3			left_asis			right_asis			left_psis			right_psis			sacrum_cluster1			sacrum_cluster2			sacrum_cluster3			left_lat_femoral_epicondyle			left_anterior_thigh15			left_anterior_thigh25			left_anterior_thigh50			left_lateral_thigh25			left_lateral_thigh50			left_thigh_cluster1			left_thigh_cluster2			left_thigh_cluster3			left_fibular_head			left_tibial_tuberosity			left_anterior_shank30			left_lateral_malleolus			left_shank_cluster1			left_shank_cluster2			left_shank_cluster3			left_heel			left_metatarsal2			left_foot_cluster1			left_foot_cluster2			left_foot_cluster3			right_lat_femoral_epicondyle			right_anterior_thigh15			right_anterior_thigh25			right_anterior_thigh50			right_lateral_thigh25			right_lateral_thigh50			right_thigh_cluster1			right_thigh_cluster2			right_thigh_cluster3			right_fibular_head			right_tibial_tuberosity			right_lateral_distal_shank			right_anterior_shank30			right_lateral_malleolus			right_shank_cluster1			right_shank_cluster2			right_shank_cluster3			right_heel			right_metatarsal2			right_foot_cluster1			
		X1	Y1	Z1	X2	Y2	Z2	X3	Y3	Z3	X4	Y4	Z4	X5	Y5	Z5	X6	Y6	Z6	X7	Y7	Z7	X8	Y8	Z8	X9	Y9	Z9	X10	Y10	Z10	X11	Y11	Z11	X12	Y12	Z12	X13	Y13	Z13	X14	Y14	Z14	X15	Y15	Z15	X16	Y16	Z16	X17	Y17	Z17	X18	Y18	Z18	X19	Y19	Z19	X20	Y20	Z20	X21	Y21	Z21	X22	Y22	Z22	X23	Y23	Z23	X24	Y24	Z24	X25	Y25	Z25	X26	Y26	Z26	X27	Y27	Z27	X28	Y28	Z28	X29	Y29	Z29	X30	Y30	Z30	X31	Y31	Z31	X32	Y32	Z32	X33	Y33	Z33	X34	Y34	Z34	X35	Y35	Z35	X36	Y36	Z36	X37	Y37	Z37	X38	Y38	Z38	X39	Y39	Z39	X40	Y40	Z40	X41	Y41	Z41	X42	Y42	Z42	X43	Y43	Z43	X44	Y44	Z44	X45	Y45	Z45	X46	Y46	Z46	X47	Y47	Z47	X48	Y48	Z48	X49	Y49	Z49	X50	Y50	Z50	X51	Y51	Z51	X52	Y52	Z52	X53	Y53	Z53	
364	3.63	2295.6296	145.35037	-167.29877	2296.4277	146.68256	-204.82756	2601.3423	1417.6888	-102.95911	2589.7449	1389.9	-95.139542	2592.7249	1392.5063	-133.03802	2623.8477	1034.7548	16.325329	2629.1978	1050.3185	-234.59491	2791.0173	1061.7642	-34.303745	2797.1062	1062.3981	-152.29097	2801.2729	1118.3333	-99.158424	2808.3262	1093.2339	-110.63135	2808.7341	1087.7723	-71.372353	2852.0935	546.36725	31.614073	2729.4099	581.84729	-13.061916	2678.3076	657.22736	4.2228761	2633.2454	792.07428	24.416382	2794.7444	686.93195	54.762394	2735.1074	819.36292	83.463295	2756.4126	779.81665	86.929245	2767.7935	752.81122	83.393906	2730.1597	749.91272	88.550209	2885.082	472.78781	38.668678	2838.613	435.75763	-12.683016	2984.5735	229.13458	-25.354958	3088.457	151.45726	0.26891196	2865.6355	387.18311	-40.951576	2876.4507	361.69077	-31.713915	2886.9736	367.95108	-68.561485	3171.7166	148.65359	-39.438854	2972.2371	59.164951	-34.570133	3004.6814	127.68636	-24.87569	2991.1018	101.73528	-15.936548	2983.2017	107.22089	-53.595512	2521.6704	531.37408	-241.82346	2475.3186	644.22302	-189.08263	2490.2295	722.00049	-188.84248	2538.5881	838.41644	-197.75417	2578.9539	678.68085	-272.80823	2634.3882	816.48224	-301.24451	2621.8301	763.5705	-306.4155	2601.6426	742.99072	-301.72629	2636.9539	727.97095	-295.90164	2510.3242	465.04416	-243.62364	2454.3101	474.57224	-200.03267	2441.1587	204.72601	-227.4351	2398.6897	233.10045	-184.50902	2401.3257	104.97282	-214.29613	2444.9553	409.94617	-144.08513	2441.8477	381.68808	-136.38522	2418.3621	386.37735	-164.56331	2460.3928	53.508598	-174.49162	2256.1438	124.64215	-176.62575	2322.8447	150.81139	-176.68967
365	3.64	2288.1155	137.73863	-165.81424	2288.7041	139.20087	-203.32062	2587.0642	1417.9663	-104.48601	2575.24	1390.2462	-96.481514	2578.0295	1392.7611	-134.52962	2608.0945	1034.7366	15.251054	2612.3804	1049.9031	-235.76929	2775.2334	1061.1445	-35.94257	2780.7651	1061.9126	-154.13034	2785.123	1117.8379	-100.87737	2792.135	1092.694	-112.39913	2792.7234	1087.2786	-73.154762	2831.575	543.99347	31.210951	2708.7686	580.1701	-13.318417	2659.0334	656.46515	4.0856152	2615.3008	792.2298	23.524191	2776.2437	685.17883	53.776669	2718.1731	818.36188	81.951859	2738.9775	778.78668	85.469612	2750.1479	751.59497	82.01812	2712.4524	749.10089	87.229172	2865.7341	471.53445	38.559677	2819.0979	433.2193	-13.417124	2973.7019	231.35141	-24.626143	3079.8779	157.11574	1.0382442	2848.8755	384.94952	-40.686115	2860.7781	359.90286	-31.38575	2870.8433	366.39554	-68.192886	3162.887	159.3038	-39.168285	2969.2043	58.359131	-34.367481	2996.8154	128.41548	-24.310244	2986.2014	100.18423	-16.776407	2976.8828	106.09389	-53.187508	2506.3416	531.06775	-242.29884	2459.1506	643.63416	-188.65526	2473.7915	721.57788	-188.9398	2521.3064	838.45782	-198.73279	2563.6299	677.96368	-271.92267	2618.0493	815.60107	-301.70636	2605.5107	762.97217	-306.66492	2585.5635	742.25519	-301.89966	2620.4004	727.54779	-296.07761	2495.7422	464.33591	-244.18478	2439.9382	473.0755	-199.72783	2431.21	202.89481	-227.66	2389.1252	230.2543	-183.80019	2395.2383	102.93623	-214.56918	2432.7593	407.82864	-143.89955	2430.1299	379.58191	-136.08427	2406.5503	383.84561	-164.19724	2456.9377	54.462883	-174.71182	2249.5608	115.26378	-174.89148	2314.8772	144.67938	-175.28566
366	3.65	2281.2087	130.64966	-164.51921	2281.5588	132.11316	-202.07935	2572.5867	1418.5305	-105.89333	2560.7798	1390.7294	-97.83886	2563.2781	1393.2062	-135.76933	2592.2988	1034.9492	14.030912	2595.6724	1049.8307	-236.91272	2759.4978	1060.6594	-37.52874	2764.4492	1061.5909	-155.85576	2769.0613	1117.4298	-102.52374	2776.0254	1092.3567	-114.1759	2776.8877	1086.8879	-74.940247	2809.575	541.57721	31.204605	2686.3704	578.2699	-13.175932	2638.6443	655.84766	4.198483	2597.7209	792.30383	22.613373	2756.6765	683.25159	52.767155	2700.6667	817.3009	80.48175	2721.0974	777.70673	83.827057	2731.7505	750.28381	80.739792	2694.0911	748.43976	86.173813	2845.0308	470.13345	38.918888	2799.6448	429.72321	-12.618836	2960.9006	233.71478	-24.287174	3069.7417	163.20241	1.5768183	2830.7646	382.6463	-40.160378	2843.396	358.28485	-30.92462	2853.0261	364.68039	-67.602837	3152.126	171.09987	-38.993301	2966.2305	57.53162	-34.363644	2988.2891	129.17627	-23.969137	2979.4619	100.39405	-16.407778	2969.8562	105.8176	-52.717697	2492.2236	530.79834	-242.87157	2444.6123	642.65814	-187.5287	2458.2385	720.78638	-189.10861	2504.2029	838.43427	-199.79735	2548.5808	677.69098	-271.93668	2601.772	815.51031	-302.2955	2589.3916	762.96289	-307.22174	2569.593	742.18677	-302.24881	2604.978	727.95947	-296.92105	2481.2979	463.98718	-245.12065	2426.0002	471.76907	-199.35965	2421.1584	201.19699	-227.69655	2380.053	227.75725	-182.26834	2389.939	100.59792	-213.70938	2421.0146	406.31482	-143.78885	2418.6135	378.25427	-135.60464	2395.1099	381.93497	-163.71674	2453.9338	56.041275	-174.59637	2243.7332	106.30383	-173.51155	2307.9263	138.51474	-174.19302
367	3.66	2275.5474	124.78038	-163.32425	2275.7014	126.40929	-200.97084	2558.2285	1419.1302	-107.13942	2546.2859	1391.4465	-99.13224	2548.6194	1394.0497	-136.96394	2576.6489	1035.3041	12.70435	2579.0403	1050.4348	-238.01303	2743.916	1060.3883	-38.998543	2748.2178	1061.519	-157.42033	2753.3147	1117.1713	-103.99786	2760.0371	1092.04	-115.66807	2761.0999	1086.4979	-76.523407	2786.2905	539.17749	31.783056	2662.5681	576.18671	-12.33266	2616.9841	655.44434	4.4446883	2579.3132	792.80139	21.692728	2736.2705	681.30902	52.004139	2682.5491	816.31964	79.01722	2702.0586	776.24591	82.158325	2712.5608	748.91699	79.476532	2674.8057	747.67139	84.763039	2823.0576	468.62787	39.524281	2778.3999	426.94958	-11.865401	2946.9414	236.40694	-23.442272	3058.0105	169.7572	2.2636452	2811.3665	380.2261	-38.772686	2825.1077	356.01053	-29.524372	2833.2988	362.70401	-66.510353	3139.0032	184.00403	-38.719078	2962.032	57.547436	-34.344612	2978.8381	129.10466	-23.616688	2972.0525	99.129684	-15.810495	2962.0681	104.54047	-52.59552	2477.8145	530.60907	-243.5836	2429.7952	641.96649	-186.4254	2443.2935	720.12006	-189.48622	2487.5957	838.47571	-200.95239	2533.1753	677.80481	-272.65204	2585.249	815.94128	-303.12341	2573.2649	763.46173	-308.03247	2553.8728	742.36121	-302.80148	2589.3	728.52972	-297.87778	2467.3796	463.67816	-245.56459	2412.2939	470.66171	-199.10306	2412.3062	199.8327	-227.20013	2371.6384	225.44144	-180.9657	2385.2048	99.004776	-213.29713	2409.2463	405.24246	-143.36119	2408.2783	376.51508	-135.82811	2383.5002	380.24173	-163.13153	2451.7319	57.818661	-174.25673	2238.865	99.045837	-172.58879	2301.7688	133.59154	-173.08669
